<!-- icon666.com - MILLIONS vector ICONS FREE --><svg viewBox="0 0 64 64" xmlns="http://www.w3.org/2000/svg"><g id="Flat"><g id="Color"><path d="m32 7.179a10.969 10.969 0 0 1 8.618-4.179 11.1 11.1 0 0 1 11.046 11.148c.283 10.089-6.265 18.008-17.733 24.357a4.014 4.014 0 0 1 -3.862 0c-11.469-6.349-18.016-14.268-17.733-24.357a11.1 11.1 0 0 1 11.046-11.148 10.969 10.969 0 0 1 8.618 4.179z" fill="#b1036a" style="fill: rgb(1, 185, 197);"></path><path d="m11 45h41v8h-41z" fill="#232732"></path><rect fill="#2e3442" height="24" rx="2" width="11" x="45" y="37"></rect><path d="m56 41h3a2 2 0 0 1 2 2v12a2 2 0 0 1 -2 2h-3a0 0 0 0 1 0 0v-16a0 0 0 0 1 0 0z" fill="#232732"></path><rect fill="#2e3442" height="24" rx="2" transform="matrix(-1 0 0 -1 27 98)" width="11" x="8" y="37"></rect><path d="m3 41h3a2 2 0 0 1 2 2v12a2 2 0 0 1 -2 2h-3a0 0 0 0 1 0 0v-16a0 0 0 0 1 0 0z" fill="#232732" transform="matrix(-1 0 0 -1 11 98)"></path><g fill="#ffc107"><path d="m57 22h-11.078l-2.009-4.02a1.783 1.783 0 0 0 -3.285.235l-3.722 11.167-3.238-15.109a1.754 1.754 0 0 0 -1.7-1.408 1.778 1.778 0 0 0 -1.768 1.335l-3.039 11.65-2.955-8.372a1.782 1.782 0 0 0 -3.31-.13l-2.067 4.652h-15.829a1 1 0 0 0 0 2h15.97a1.786 1.786 0 0 0 1.63-1.059l1.9-4.282 3.009 8.526a1.783 1.783 0 0 0 3.406-.144l2.985-11.452 3.217 14.991a1.783 1.783 0 0 0 3.434.19l3.808-11.424 1.834 3.669a1.776 1.776 0 0 0 1.595.985h11.212a1 1 0 0 0 0-2z" fill="#ffc107" style="fill: rgb(46, 52, 66);"></path><circle cx="61" cy="23" r="1" fill="#ffc107" style="fill: rgb(46, 52, 66);"></circle></g></g></g></svg>